<mxfile host="app.diagrams.net" agent="Mozilla/5.0 (Windows NT 10.0; Win64; x64) AppleWebKit/537.36 (KHTML, like Gecko) Chrome/130.0.0.0 Safari/537.36" version="24.7.17">
  <diagram name="Page-1" id="ChJx3y0nyNyGpWBF7ftN">
    <mxGraphModel dx="1418" dy="867" grid="1" gridSize="10" guides="1" tooltips="1" connect="1" arrows="1" fold="1" page="1" pageScale="1" pageWidth="850" pageHeight="1100" math="0" shadow="0">
      <root>
        <mxCell id="0" />
        <mxCell id="1" parent="0" />
        <mxCell id="o_zcKpLf6Lm1jRTvalWN-1" value="Shape" style="swimlane;fontStyle=1;align=center;verticalAlign=top;childLayout=stackLayout;horizontal=1;startSize=29.75;horizontalStack=0;resizeParent=1;resizeParentMax=0;resizeLast=0;collapsible=0;marginBottom=0;" vertex="1" parent="1">
          <mxGeometry x="107" y="20" width="152" height="127.75" as="geometry" />
        </mxCell>
        <mxCell id="o_zcKpLf6Lm1jRTvalWN-2" value="+String shapeName" style="text;strokeColor=none;fillColor=none;align=left;verticalAlign=top;spacingLeft=4;spacingRight=4;overflow=hidden;rotatable=0;points=[[0,0.5],[1,0.5]];portConstraint=eastwest;" vertex="1" parent="o_zcKpLf6Lm1jRTvalWN-1">
          <mxGeometry y="29.75" width="152" height="30" as="geometry" />
        </mxCell>
        <mxCell id="o_zcKpLf6Lm1jRTvalWN-3" style="line;strokeWidth=1;fillColor=none;align=left;verticalAlign=middle;spacingTop=-1;spacingLeft=3;spacingRight=3;rotatable=0;labelPosition=right;points=[];portConstraint=eastwest;strokeColor=inherit;" vertex="1" parent="o_zcKpLf6Lm1jRTvalWN-1">
          <mxGeometry y="59.75" width="152" height="8" as="geometry" />
        </mxCell>
        <mxCell id="o_zcKpLf6Lm1jRTvalWN-4" value="+double area()" style="text;strokeColor=none;fillColor=none;align=left;verticalAlign=top;spacingLeft=4;spacingRight=4;overflow=hidden;rotatable=0;points=[[0,0.5],[1,0.5]];portConstraint=eastwest;" vertex="1" parent="o_zcKpLf6Lm1jRTvalWN-1">
          <mxGeometry y="67.75" width="152" height="30" as="geometry" />
        </mxCell>
        <mxCell id="o_zcKpLf6Lm1jRTvalWN-5" value="+String toString()" style="text;strokeColor=none;fillColor=none;align=left;verticalAlign=top;spacingLeft=4;spacingRight=4;overflow=hidden;rotatable=0;points=[[0,0.5],[1,0.5]];portConstraint=eastwest;" vertex="1" parent="o_zcKpLf6Lm1jRTvalWN-1">
          <mxGeometry y="97.75" width="152" height="30" as="geometry" />
        </mxCell>
        <mxCell id="o_zcKpLf6Lm1jRTvalWN-6" value="Sphere" style="swimlane;fontStyle=1;align=center;verticalAlign=top;childLayout=stackLayout;horizontal=1;startSize=29.75;horizontalStack=0;resizeParent=1;resizeParentMax=0;resizeLast=0;collapsible=0;marginBottom=0;" vertex="1" parent="1">
          <mxGeometry x="20" y="209" width="138" height="127.75" as="geometry" />
        </mxCell>
        <mxCell id="o_zcKpLf6Lm1jRTvalWN-7" value="+double radius" style="text;strokeColor=none;fillColor=none;align=left;verticalAlign=top;spacingLeft=4;spacingRight=4;overflow=hidden;rotatable=0;points=[[0,0.5],[1,0.5]];portConstraint=eastwest;" vertex="1" parent="o_zcKpLf6Lm1jRTvalWN-6">
          <mxGeometry y="29.75" width="138" height="30" as="geometry" />
        </mxCell>
        <mxCell id="o_zcKpLf6Lm1jRTvalWN-8" style="line;strokeWidth=1;fillColor=none;align=left;verticalAlign=middle;spacingTop=-1;spacingLeft=3;spacingRight=3;rotatable=0;labelPosition=right;points=[];portConstraint=eastwest;strokeColor=inherit;" vertex="1" parent="o_zcKpLf6Lm1jRTvalWN-6">
          <mxGeometry y="59.75" width="138" height="8" as="geometry" />
        </mxCell>
        <mxCell id="o_zcKpLf6Lm1jRTvalWN-9" value="+double area()" style="text;strokeColor=none;fillColor=none;align=left;verticalAlign=top;spacingLeft=4;spacingRight=4;overflow=hidden;rotatable=0;points=[[0,0.5],[1,0.5]];portConstraint=eastwest;" vertex="1" parent="o_zcKpLf6Lm1jRTvalWN-6">
          <mxGeometry y="67.75" width="138" height="30" as="geometry" />
        </mxCell>
        <mxCell id="o_zcKpLf6Lm1jRTvalWN-10" value="+String toString()" style="text;strokeColor=none;fillColor=none;align=left;verticalAlign=top;spacingLeft=4;spacingRight=4;overflow=hidden;rotatable=0;points=[[0,0.5],[1,0.5]];portConstraint=eastwest;" vertex="1" parent="o_zcKpLf6Lm1jRTvalWN-6">
          <mxGeometry y="97.75" width="138" height="30" as="geometry" />
        </mxCell>
        <mxCell id="o_zcKpLf6Lm1jRTvalWN-11" value="Rectangle" style="swimlane;fontStyle=1;align=center;verticalAlign=top;childLayout=stackLayout;horizontal=1;startSize=28.4;horizontalStack=0;resizeParent=1;resizeParentMax=0;resizeLast=0;collapsible=0;marginBottom=0;" vertex="1" parent="1">
          <mxGeometry x="208" y="197" width="138" height="148.4" as="geometry" />
        </mxCell>
        <mxCell id="o_zcKpLf6Lm1jRTvalWN-12" value="+double length" style="text;strokeColor=none;fillColor=none;align=left;verticalAlign=top;spacingLeft=4;spacingRight=4;overflow=hidden;rotatable=0;points=[[0,0.5],[1,0.5]];portConstraint=eastwest;" vertex="1" parent="o_zcKpLf6Lm1jRTvalWN-11">
          <mxGeometry y="28.4" width="138" height="28" as="geometry" />
        </mxCell>
        <mxCell id="o_zcKpLf6Lm1jRTvalWN-13" value="+double width" style="text;strokeColor=none;fillColor=none;align=left;verticalAlign=top;spacingLeft=4;spacingRight=4;overflow=hidden;rotatable=0;points=[[0,0.5],[1,0.5]];portConstraint=eastwest;" vertex="1" parent="o_zcKpLf6Lm1jRTvalWN-11">
          <mxGeometry y="56.4" width="138" height="28" as="geometry" />
        </mxCell>
        <mxCell id="o_zcKpLf6Lm1jRTvalWN-14" style="line;strokeWidth=1;fillColor=none;align=left;verticalAlign=middle;spacingTop=-1;spacingLeft=3;spacingRight=3;rotatable=0;labelPosition=right;points=[];portConstraint=eastwest;strokeColor=inherit;" vertex="1" parent="o_zcKpLf6Lm1jRTvalWN-11">
          <mxGeometry y="84.4" width="138" height="8" as="geometry" />
        </mxCell>
        <mxCell id="o_zcKpLf6Lm1jRTvalWN-15" value="+double area()" style="text;strokeColor=none;fillColor=none;align=left;verticalAlign=top;spacingLeft=4;spacingRight=4;overflow=hidden;rotatable=0;points=[[0,0.5],[1,0.5]];portConstraint=eastwest;" vertex="1" parent="o_zcKpLf6Lm1jRTvalWN-11">
          <mxGeometry y="92.4" width="138" height="28" as="geometry" />
        </mxCell>
        <mxCell id="o_zcKpLf6Lm1jRTvalWN-16" value="+String toString()" style="text;strokeColor=none;fillColor=none;align=left;verticalAlign=top;spacingLeft=4;spacingRight=4;overflow=hidden;rotatable=0;points=[[0,0.5],[1,0.5]];portConstraint=eastwest;" vertex="1" parent="o_zcKpLf6Lm1jRTvalWN-11">
          <mxGeometry y="120.4" width="138" height="28" as="geometry" />
        </mxCell>
        <mxCell id="o_zcKpLf6Lm1jRTvalWN-17" value="Cylinder" style="swimlane;fontStyle=1;align=center;verticalAlign=top;childLayout=stackLayout;horizontal=1;startSize=28.4;horizontalStack=0;resizeParent=1;resizeParentMax=0;resizeLast=0;collapsible=0;marginBottom=0;" vertex="1" parent="1">
          <mxGeometry x="396" y="197" width="138" height="148.4" as="geometry" />
        </mxCell>
        <mxCell id="o_zcKpLf6Lm1jRTvalWN-18" value="+double radius" style="text;strokeColor=none;fillColor=none;align=left;verticalAlign=top;spacingLeft=4;spacingRight=4;overflow=hidden;rotatable=0;points=[[0,0.5],[1,0.5]];portConstraint=eastwest;" vertex="1" parent="o_zcKpLf6Lm1jRTvalWN-17">
          <mxGeometry y="28.4" width="138" height="28" as="geometry" />
        </mxCell>
        <mxCell id="o_zcKpLf6Lm1jRTvalWN-19" value="+double height" style="text;strokeColor=none;fillColor=none;align=left;verticalAlign=top;spacingLeft=4;spacingRight=4;overflow=hidden;rotatable=0;points=[[0,0.5],[1,0.5]];portConstraint=eastwest;" vertex="1" parent="o_zcKpLf6Lm1jRTvalWN-17">
          <mxGeometry y="56.4" width="138" height="28" as="geometry" />
        </mxCell>
        <mxCell id="o_zcKpLf6Lm1jRTvalWN-20" style="line;strokeWidth=1;fillColor=none;align=left;verticalAlign=middle;spacingTop=-1;spacingLeft=3;spacingRight=3;rotatable=0;labelPosition=right;points=[];portConstraint=eastwest;strokeColor=inherit;" vertex="1" parent="o_zcKpLf6Lm1jRTvalWN-17">
          <mxGeometry y="84.4" width="138" height="8" as="geometry" />
        </mxCell>
        <mxCell id="o_zcKpLf6Lm1jRTvalWN-21" value="+double area()" style="text;strokeColor=none;fillColor=none;align=left;verticalAlign=top;spacingLeft=4;spacingRight=4;overflow=hidden;rotatable=0;points=[[0,0.5],[1,0.5]];portConstraint=eastwest;" vertex="1" parent="o_zcKpLf6Lm1jRTvalWN-17">
          <mxGeometry y="92.4" width="138" height="28" as="geometry" />
        </mxCell>
        <mxCell id="o_zcKpLf6Lm1jRTvalWN-22" value="+String toString()" style="text;strokeColor=none;fillColor=none;align=left;verticalAlign=top;spacingLeft=4;spacingRight=4;overflow=hidden;rotatable=0;points=[[0,0.5],[1,0.5]];portConstraint=eastwest;" vertex="1" parent="o_zcKpLf6Lm1jRTvalWN-17">
          <mxGeometry y="120.4" width="138" height="28" as="geometry" />
        </mxCell>
        <mxCell id="o_zcKpLf6Lm1jRTvalWN-23" value="Paint" style="swimlane;fontStyle=1;align=center;verticalAlign=top;childLayout=stackLayout;horizontal=1;startSize=32;horizontalStack=0;resizeParent=1;resizeParentMax=0;resizeLast=0;collapsible=0;marginBottom=0;" vertex="1" parent="1">
          <mxGeometry x="309" y="32" width="231" height="104" as="geometry" />
        </mxCell>
        <mxCell id="o_zcKpLf6Lm1jRTvalWN-24" value="+double coverage" style="text;strokeColor=none;fillColor=none;align=left;verticalAlign=top;spacingLeft=4;spacingRight=4;overflow=hidden;rotatable=0;points=[[0,0.5],[1,0.5]];portConstraint=eastwest;" vertex="1" parent="o_zcKpLf6Lm1jRTvalWN-23">
          <mxGeometry y="32" width="231" height="32" as="geometry" />
        </mxCell>
        <mxCell id="o_zcKpLf6Lm1jRTvalWN-25" style="line;strokeWidth=1;fillColor=none;align=left;verticalAlign=middle;spacingTop=-1;spacingLeft=3;spacingRight=3;rotatable=0;labelPosition=right;points=[];portConstraint=eastwest;strokeColor=inherit;" vertex="1" parent="o_zcKpLf6Lm1jRTvalWN-23">
          <mxGeometry y="64" width="231" height="8" as="geometry" />
        </mxCell>
        <mxCell id="o_zcKpLf6Lm1jRTvalWN-26" value="+double amount(Shape shape)" style="text;strokeColor=none;fillColor=none;align=left;verticalAlign=top;spacingLeft=4;spacingRight=4;overflow=hidden;rotatable=0;points=[[0,0.5],[1,0.5]];portConstraint=eastwest;" vertex="1" parent="o_zcKpLf6Lm1jRTvalWN-23">
          <mxGeometry y="72" width="231" height="32" as="geometry" />
        </mxCell>
        <mxCell id="o_zcKpLf6Lm1jRTvalWN-27" value="PaintThings" style="swimlane;fontStyle=1;align=center;verticalAlign=top;childLayout=stackLayout;horizontal=1;startSize=29.2;horizontalStack=0;resizeParent=1;resizeParentMax=0;resizeLast=0;collapsible=0;marginBottom=0;" vertex="1" parent="1">
          <mxGeometry x="591" y="43" width="192" height="66.2" as="geometry" />
        </mxCell>
        <mxCell id="o_zcKpLf6Lm1jRTvalWN-28" style="line;strokeWidth=1;fillColor=none;align=left;verticalAlign=middle;spacingTop=-1;spacingLeft=3;spacingRight=3;rotatable=0;labelPosition=right;points=[];portConstraint=eastwest;strokeColor=inherit;" vertex="1" parent="o_zcKpLf6Lm1jRTvalWN-27">
          <mxGeometry y="29.2" width="192" height="8" as="geometry" />
        </mxCell>
        <mxCell id="o_zcKpLf6Lm1jRTvalWN-29" value="+void main(String[] args)" style="text;strokeColor=none;fillColor=none;align=left;verticalAlign=top;spacingLeft=4;spacingRight=4;overflow=hidden;rotatable=0;points=[[0,0.5],[1,0.5]];portConstraint=eastwest;" vertex="1" parent="o_zcKpLf6Lm1jRTvalWN-27">
          <mxGeometry y="37.2" width="192" height="29" as="geometry" />
        </mxCell>
        <mxCell id="o_zcKpLf6Lm1jRTvalWN-30" value="" style="curved=1;startArrow=block;startSize=16;startFill=0;endArrow=none;exitX=0.06;exitY=1;entryX=0.5;entryY=0;rounded=0;" edge="1" parent="1" source="o_zcKpLf6Lm1jRTvalWN-1" target="o_zcKpLf6Lm1jRTvalWN-6">
          <mxGeometry relative="1" as="geometry">
            <Array as="points">
              <mxPoint x="89" y="172" />
            </Array>
          </mxGeometry>
        </mxCell>
        <mxCell id="o_zcKpLf6Lm1jRTvalWN-31" value="" style="curved=1;startArrow=block;startSize=16;startFill=0;endArrow=none;exitX=0.95;exitY=1;entryX=0.5;entryY=0;rounded=0;" edge="1" parent="1" source="o_zcKpLf6Lm1jRTvalWN-1" target="o_zcKpLf6Lm1jRTvalWN-11">
          <mxGeometry relative="1" as="geometry">
            <Array as="points">
              <mxPoint x="277" y="172" />
            </Array>
          </mxGeometry>
        </mxCell>
        <mxCell id="o_zcKpLf6Lm1jRTvalWN-32" value="" style="curved=1;startArrow=block;startSize=16;startFill=0;endArrow=none;exitX=1;exitY=0.69;entryX=0.5;entryY=0;rounded=0;" edge="1" parent="1" source="o_zcKpLf6Lm1jRTvalWN-1" target="o_zcKpLf6Lm1jRTvalWN-17">
          <mxGeometry relative="1" as="geometry">
            <Array as="points">
              <mxPoint x="466" y="172" />
            </Array>
          </mxGeometry>
        </mxCell>
      </root>
    </mxGraphModel>
  </diagram>
</mxfile>
